<svg xmlns="http://www.w3.org/2000/svg" viewBox="0 0 54 82.66" fill="#fff">
    <defs><style>.cls-1{fill:#fff;}</style></defs><title>html</title><g id="Layer_2" data-name="Layer 2"><g id="Layer_1-2" data-name="Layer 1"><path class="cls-1" d="M.28,20.32,5.14,75.4l21.79,7.26L48.86,75.4l4.86-55.08Zm42.89,17.8H17.59L18.16,45H42.6L40.71,65.64,27.08,69.4v0h-.15l-13.74-3.8-.83-10.55H19l.49,5.3,7.45,2,7.47-2,.83-8.66H12L10.23,31.48H43.78Z"/><path class="cls-1" d="M41.81,0c0,.1,0,.2,0,.3q0,6,0,12v.32H37.6V6.45l-.06,0-2.89,4.45-2.92-4.5v6.2H27.62c0-.06,0-.13,0-.2q0-6.11,0-12.21c0-.05,0-.11,0-.16H32l2.69,4.43.15-.24L37.1.48c.1-.16.18-.32.28-.48Z"/><path class="cls-1" d="M12.29,0V12.58H8.09V8.41H4.25v4.16H0v-.3q0-6,0-12C0,.2,0,.1,0,0H4.2V4.14H8.08V0Z"/><path class="cls-1" d="M25.74,0V4.2H22v8.38h-4.2V4.21H14.12V3.92q0-1.82,0-3.64c0-.09,0-.19,0-.28Z"/><path class="cls-1" d="M48.07,0V8.43H54v4.15H43.87V0Z"/></g></g></svg>