<svg xmlns="http://www.w3.org/2000/svg" viewBox="0 0 336.64 197.3" fill="#fff">
    <defs><style>.cls-1{fill:#fff;}</style></defs>
    <title>Php laravel</title>
    <g id="Layer_2" data-name="Layer 2">
        <g id="Layer_1-2" data-name="Layer 1">
            <path fill="#fff" className="cls-1" d="M264.36,62.62c-1.29-1.47-19.22-23.9-22.38-27.7s-4.71-3.12-6.64-2.85-24.64,4.1-27.27,4.53-4.28,1.5-2.66,3.77c1.44,2,16.34,23.17,19.65,27.82l-59.29,14.2L118.58,3.58C116.71.79,116.31-.19,112,0S75,2.94,72.7,3.15s-4.9,1.22-2.57,6.73,39.48,85.58,40.52,87.91,3.73,6.12,10,4.59c6.46-1.56,28.86-7.41,41.1-10.62,6.46,11.72,19.65,35.47,22.1,38.87,3.25,4.56,5.51,3.79,10.5,2.26,3.92-1.19,61.09-21.76,63.66-22.8s4.16-1.81,2.42-4.41c-1.29-1.89-16.38-22.1-24.27-32.69,5.42-1.43,24.67-6.55,26.72-7.13,2.42-.61,2.75-1.77,1.44-3.24Zm-107.8,22c-.7.15-33.91,8.11-35.69,8.5s-1.77.22-2-.39-39.48-81.63-40-82.64-.52-1.81,0-1.81,31.37-2.75,32.44-2.81,1,.18,1.38.85c0,0,43.52,75.11,44.26,76.43S157.26,84.5,156.56,84.66Zm93.66,17.56c.52.83,1.07,1.38-.62,2s-56.22,19-57.26,19.47-1.9.61-3.25-1.38S170,89.58,170,89.58l57.78-15c1.44-.46,1.9-.77,2.82.67S249.7,101.4,250.22,102.22Zm3.7-41c-1.29.28-22.53,5.54-22.53,5.54L214,42.91c-.49-.71-.89-1.38.34-1.53s20.93-3.74,21.82-3.92,1.65-.46,2.75,1S255.05,59,255.63,59.74s-.43,1.13-1.71,1.44ZM7.61,185.09v11.36H0V161.57H10.7a29.34,29.34,0,0,1,7.59.92,11.24,11.24,0,0,1,5.72,3.6c1.52,1.79,2.29,4.29,2.29,7.5A12.35,12.35,0,0,1,25,179.4a9.66,9.66,0,0,1-4.58,4.12,19.68,19.68,0,0,1-8.56,1.57Zm0-5.79H11q6.46,0,6.47-5.86,0-6.08-6.47-6.08H7.61Zm32.09,1.12v16H32.08V161.57H39.7v13.06H52.42V161.57H60v34.88H52.42v-16Zm36,4.67v11.36H68.11V161.57h10.7a29.34,29.34,0,0,1,7.59.92,11.2,11.2,0,0,1,5.72,3.6c1.52,1.79,2.29,4.29,2.29,7.5a12.35,12.35,0,0,1-1.34,5.81,9.68,9.68,0,0,1-4.57,4.12,19.73,19.73,0,0,1-8.57,1.57Zm0-5.79h3.35q6.48,0,6.47-5.86,0-6.08-6.47-6.08H75.73Zm49.57,11.36H141v5.79H117.69V161.57h7.61Zm29-1.43-2.68,7.22h-7.68l13.16-34.88h7.07l13.16,34.88H169.6l-2.68-7.22Zm6.32-16.88-4.18,11.09h8.37Zm29.51,10.14v14h-7.61V161.57h13.59a21.1,21.1,0,0,1,5.91.81,9.22,9.22,0,0,1,6.74,9.7,11.53,11.53,0,0,1-1.41,5.2q-1.41,2.78-6.1,4.35l9.36,14.82H201.8l-8.83-14Zm0-15.13v9.34h4.5q5.76,0,5.76-4.63c0-2-.61-3.3-1.83-3.86a11.59,11.59,0,0,0-4.83-.85Zm33.13,21.87-2.67,7.22h-7.69L226,161.57h7.08l13.16,34.88h-7.69l-2.68-7.22Zm6.33-16.88-4.19,11.09h8.37Zm34.25,11.5,7.71-22.28H279L267.12,197.3h-6.67l-11.92-35.73h7.54Zm28-16.49v8.37h11.73v5.79H291.83v9.14h15.72v5.79H284.22V161.57h21.57v5.79Zm29.1,23.3h15.71v5.79H313.31V161.57h7.62Z"/>
        </g>
    </g>
</svg>