<svg xmlns="http://www.w3.org/2000/svg" viewBox="0 0 260 136.74" fill="#fff">
    <defs><style>.cls-1{fill:#fff;}</style></defs>
    <title>PHP</title>
    <g id="Layer_2" data-name="Layer 2" fill="#fff">
        <g id="Layer_1-2" data-name="Layer 1" fill="#fff">
            <path fill="#fff" class="cls-1" d="M130,6.83c69.63,0,123.18,29.33,123.18,61.54S199.59,129.92,130,129.92,6.82,100.59,6.82,68.37,60.41,6.83,130,6.83M130,0C58.22,0,0,30.59,0,68.37s58.22,68.37,130,68.37,130-30.59,130-68.37S201.78,0,130,0ZM88.64,62.89C85.43,79.34,74.1,77.63,60.17,77.63L65.73,49c15.44,0,25.92-1.66,22.91,13.94ZM39.57,106.68H54.48L58,88.48c16.7,0,27.06,1.22,36.65-7.76C105.26,71,108,53.63,100.47,44.93c-3.94-4.55-10.28-6.78-18.89-6.78H52.85ZM115,19.91h14.83l-3.54,18.2c12.8,0,24.66-.94,30.39,4.34,6,5.53,3.13,12.6-3.37,46h-15c6.25-32.26,7.43-34.94,5.16-37.38s-7.19-1.86-19.26-1.86L116.55,88.4H101.73L115,19.91Zm90.15,43c-3.25,16.69-14.91,14.74-28.48,14.74L182.24,49c15.52,0,25.92-1.66,22.92,13.94Zm-49.08,43.79H171l3.54-18.2c17.55,0,27.26,1,36.64-7.76C221.81,71,224.58,53.63,217,44.93c-3.94-4.55-10.28-6.78-18.89-6.78H169.41Z"/>
        </g>
    </g>
</svg>