<svg xmlns="http://www.w3.org/2000/svg" viewBox="0 0 338.13 199.64" fill="#fff">
    <title>react redux logo</title>
    <g id="Layer_2" data-name="Layer 2">
        <g id="Layer_1-2" data-name="Layer 1">
            <path fill="#fff" d="M289.36,105.29a11.35,11.35,0,0,0-1.21-22.64h-.4a11.32,11.32,0,0,0-10.92,11.73,11.58,11.58,0,0,0,3.24,7.47c-6.88,13.54-17.38,23.45-33.15,31.73A54.65,54.65,0,0,1,214,139.85c-9.1-1.22-16.17-5.26-20.62-11.93-6.46-9.9-7.07-20.61-1.61-31.32A47.58,47.58,0,0,1,205.5,80.43c-.81-2.63-2-7.07-2.63-10.3-29.3,21.21-26.27,49.91-17.38,63.45C192.16,143.69,205.7,150,220.65,150a49.68,49.68,0,0,0,12.13-1.41c25.87-5.06,45.47-20.42,56.58-43.25Zm35.57-25.06c-15.36-18-38-27.89-63.86-27.89h-3.23a11.1,11.1,0,0,0-9.91-6.06h-.4a11.32,11.32,0,0,0,.4,22.63h.41a11.39,11.39,0,0,0,9.9-6.87h3.64a77,77,0,0,1,43,13.14C315,81.85,322.3,90.54,326.34,101c3.44,8.49,3.24,16.78-.4,23.85-5.66,10.71-15.16,16.57-27.69,16.57a51.65,51.65,0,0,1-19.8-4.24c-2.22,2-6.27,5.25-9.09,7.27a62.25,62.25,0,0,0,26.06,6.27c19.4,0,33.75-10.71,39.21-21.42,5.86-11.72,5.45-31.93-9.7-49.11ZM222.27,108.72a11.35,11.35,0,0,0,11.32,10.92h.4a11.32,11.32,0,0,0-.4-22.64h-.41a3.45,3.45,0,0,0-1.41.2,74,74,0,0,1-10.51-44.86c.81-12.12,4.85-22.63,11.92-31.32C239,13.54,250.36,9.9,258,9.7c21.42-.4,30.51,26.27,31.12,37,2.63.61,7.07,2,10.1,3C296.84,17,276.63,0,257.23,0c-18.19,0-35,13.14-41.63,32.54-9.29,25.86-3.23,50.72,8.08,70.32a9.1,9.1,0,0,0-1.41,5.86ZM138,48.41c-1.78-.59-3.57-1.16-5.35-1.68.3-1.22.56-2.45.83-3.67,4.06-19.67,1.38-35.48-7.63-40.7-8.68-5-22.84.2-37.17,12.68-1.41,1.22-2.8,2.51-4.12,3.8-.89-.86-1.82-1.72-2.74-2.55C66.84,3,51.79-2.65,42.78,2.6c-8.65,5-11.22,19.9-7.59,38.52.36,1.84.76,3.66,1.22,5.51-2.11.59-4.19,1.25-6.14,1.95C12.64,54.68,0,64.32,0,74.29c0,10.3,13.47,20.63,31.79,26.9,1.48.49,3,1,4.49,1.42-.5,2-.93,3.93-1.32,5.94-3.47,18.32-.76,32.84,7.88,37.83,8.92,5.15,23.9-.13,38.49-12.91,1.16-1,2.31-2.08,3.47-3.2,1.45,1.42,3,2.77,4.49,4.09,14.12,12.15,28.09,17.07,36.7,12.08,8.91-5.15,11.82-20.76,8-39.77-.29-1.45-.62-2.94-1-4.46,1.06-.29,2.08-.62,3.11-.95C155.2,95,169,84.75,169,74.29c0-10-13-19.71-31-25.88Zm-44.66-28c12.28-10.7,23.73-14.89,29-11.89,5.58,3.21,7.72,16.14,4.22,33.14-.23,1.13-.46,2.21-.76,3.3a168.72,168.72,0,0,0-22.21-3.49A166.78,166.78,0,0,0,89.52,23.92C90.8,22.7,92.06,21.54,93.38,20.39ZM50.47,82.8c1.52,2.91,3.07,5.78,4.72,8.62s3.4,5.74,5.21,8.55a149.26,149.26,0,0,1-15.31-2.48A154.85,154.85,0,0,1,50.47,82.8Zm0-16.7c-2.08-4.92-3.83-9.74-5.28-14.39,4.75-1.06,9.8-1.91,15.05-2.57-1.75,2.74-3.47,5.54-5.08,8.38S52,63.2,50.47,66.1Zm3.76,8.35c2.18-4.55,4.56-9,7.07-13.4s5.21-8.65,8-12.84c5-.36,10-.56,15.15-.56s10.23.2,15.15.56q4.21,6.24,8,12.78c2.54,4.35,4.92,8.81,7.16,13.33q-3.31,6.84-7.13,13.47c-2.5,4.39-5.18,8.65-8,12.87-4.92.36-10,.53-15.22.53s-10.2-.17-15-.46q-4.31-6.28-8.12-12.88c-2.54-4.39-4.89-8.84-7.1-13.4Zm59.61,16.9c1.69-2.9,3.27-5.84,4.82-8.81a152.71,152.71,0,0,1,5.58,14.62,142.69,142.69,0,0,1-15.51,2.64c1.78-2.77,3.46-5.61,5.11-8.45ZM118.6,66.1c-1.55-2.9-3.14-5.81-4.79-8.65s-3.3-5.57-5-8.31a151.18,151.18,0,0,1,15.15,2.64A147.09,147.09,0,0,1,118.6,66.1ZM84.57,29a145.17,145.17,0,0,1,9.77,11.82c-6.54-.3-13.11-.3-19.64,0C77.93,36.53,81.27,32.57,84.57,29ZM46.28,8.73c5.54-3.23,17.85,1.39,30.83,12.88.82.72,1.65,1.52,2.5,2.31A169,169,0,0,0,65.45,41.45a173.53,173.53,0,0,0-22.18,3.43c-.43-1.69-.79-3.4-1.15-5.12-3.1-16-1.06-28,4.16-31Zm-8.09,87c-1.39-.39-2.74-.82-4.09-1.28-7-2.22-15-5.71-20.8-10.3a14.8,14.8,0,0,1-6.2-9.87c0-6,10.43-13.77,25.48-19,1.88-.66,3.79-1.26,5.71-1.82a174.21,174.21,0,0,0,8.09,21A180.87,180.87,0,0,0,38.19,95.74Zm38.49,32.35a60.19,60.19,0,0,1-18.62,11.65,14.58,14.58,0,0,1-11.65.43c-5.25-3-7.43-14.69-4.46-30.37.37-1.84.76-3.69,1.22-5.51a164.31,164.31,0,0,0,22.42,3.24,172.34,172.34,0,0,0,14.26,17.62c-1.06,1-2.12,2-3.17,2.94Zm8.08-8c-3.36-3.63-6.73-7.66-10-12,3.17.13,6.44.2,9.74.2s6.73-.07,10-.23A140.65,140.65,0,0,1,84.76,120.07Zm43.15,9.9a14.67,14.67,0,0,1-5.45,10.33c-5.25,3-16.44-.92-28.52-11.28-1.39-1.19-2.77-2.48-4.19-3.8a164.61,164.61,0,0,0,13.93-17.69,163.7,163.7,0,0,0,22.51-3.47c.33,1.35.63,2.71.89,4a60.23,60.23,0,0,1,.83,21.88Zm6-35.48c-.92.3-1.85.59-2.8.86a166.87,166.87,0,0,0-8.42-21.06,168.3,168.3,0,0,0,8.09-20.76c1.71.49,3.36,1,4.95,1.55,15.38,5.28,26.17,13.13,26.17,19.14C161.9,80.69,150.38,89,133.91,94.49ZM84.5,59.3A15.12,15.12,0,1,1,69.38,74.42,15.12,15.12,0,0,1,84.5,59.3M219.9,189.92h-4.2v9.37h-5.28V173.7h9.51q4.55,0,7,2a7,7,0,0,1,2.46,5.71,7.93,7.93,0,0,1-1.13,4.37,7.78,7.78,0,0,1-3.44,2.79L230.36,199v.25H224.7Zm-4.2-4.27H220a4.38,4.38,0,0,0,3.08-1,3.63,3.63,0,0,0,1.09-2.79,3.84,3.84,0,0,0-1-2.84,4.25,4.25,0,0,0-3.16-1H215.7Zm26.12,14a9.33,9.33,0,0,1-6.81-2.56,9.13,9.13,0,0,1-2.63-6.84v-.49a11.51,11.51,0,0,1,1.11-5.13,8.17,8.17,0,0,1,3.14-3.48,8.82,8.82,0,0,1,4.63-1.22,7.88,7.88,0,0,1,6.14,2.46q2.23,2.46,2.24,7v2.07H237.53a4.67,4.67,0,0,0,1.49,3,4.47,4.47,0,0,0,3.13,1.13,5.48,5.48,0,0,0,4.59-2.13l2.5,2.79a7.69,7.69,0,0,1-3.1,2.53A10.19,10.19,0,0,1,241.82,199.64ZM241.24,184a3.16,3.16,0,0,0-2.45,1,5.31,5.31,0,0,0-1.21,2.93h7.07v-.41a3.79,3.79,0,0,0-.91-2.62A3.28,3.28,0,0,0,241.24,184Zm10.49,5.62a11.44,11.44,0,0,1,2-7.08,6.47,6.47,0,0,1,5.46-2.64,5.81,5.81,0,0,1,4.58,2.07v-9.7h5.1v27h-4.59l-.24-2a6,6,0,0,1-4.89,2.37,6.47,6.47,0,0,1-5.39-2.64A11.88,11.88,0,0,1,251.73,189.64Zm5.08.38a7.43,7.43,0,0,0,.94,4.1,3,3,0,0,0,2.7,1.43,3.4,3.4,0,0,0,3.32-2V186a3.33,3.33,0,0,0-3.28-2Q256.82,184.05,256.81,190Zm27.39,7.34a6.37,6.37,0,0,1-5.2,2.28,6,6,0,0,1-4.67-1.76,7.48,7.48,0,0,1-1.64-5.15V180.27h5.08v12.3c0,2,.9,3,2.7,3a3.65,3.65,0,0,0,3.55-1.8V180.27h5.1v19h-4.78Zm16-11.41,3.2-5.68h5.43l-5.42,9.32,5.65,9.7h-5.45l-3.4-6-3.37,6h-5.47l5.64-9.7-5.39-9.32h5.45ZM51,189.92h-4.2v9.37H41.54V173.7h9.51q4.53,0,7,2a7,7,0,0,1,2.46,5.71,7.15,7.15,0,0,1-4.57,7.16L61.47,199v.25H55.81Zm-4.2-4.27h4.25a4.38,4.38,0,0,0,3.08-1,3.59,3.59,0,0,0,1.09-2.79,3.84,3.84,0,0,0-1-2.84,4.23,4.23,0,0,0-3.15-1H46.81Zm26.12,14a9.33,9.33,0,0,1-6.81-2.56,9.13,9.13,0,0,1-2.63-6.84v-.49a11.51,11.51,0,0,1,1.11-5.13,8.17,8.17,0,0,1,3.14-3.48,8.82,8.82,0,0,1,4.63-1.22,7.88,7.88,0,0,1,6.14,2.46c1.5,1.64,2.24,4,2.24,7v2.07H68.64a4.72,4.72,0,0,0,1.49,3,4.47,4.47,0,0,0,3.13,1.13,5.48,5.48,0,0,0,4.59-2.13l2.5,2.79a7.63,7.63,0,0,1-3.1,2.53A10.19,10.19,0,0,1,72.93,199.64ZM72.35,184a3.18,3.18,0,0,0-2.45,1A5.31,5.31,0,0,0,68.69,188h7.07v-.41a3.79,3.79,0,0,0-.91-2.62A3.28,3.28,0,0,0,72.35,184Zm22.31,15.27a5.33,5.33,0,0,1-.51-1.7,6.15,6.15,0,0,1-4.8,2A6.78,6.78,0,0,1,84.72,198,5.19,5.19,0,0,1,82.88,194a5.37,5.37,0,0,1,2.24-4.64,11,11,0,0,1,6.48-1.64h2.34v-1.09a3.15,3.15,0,0,0-.68-2.11,2.68,2.68,0,0,0-2.14-.79,3,3,0,0,0-2,.62,2.1,2.1,0,0,0-.73,1.68H83.3a5.06,5.06,0,0,1,1-3,6.71,6.71,0,0,1,2.88-2.21,10.61,10.61,0,0,1,4.19-.8A8.3,8.3,0,0,1,97,181.69a6.15,6.15,0,0,1,2.06,5v8.25a9.2,9.2,0,0,0,.76,4.09v.3Zm-4.2-3.53a4.4,4.4,0,0,0,2.07-.5,3.41,3.41,0,0,0,1.41-1.35v-3.27H92c-2.54,0-3.9.88-4.06,2.64l0,.3a2,2,0,0,0,.67,1.56A2.58,2.58,0,0,0,90.46,195.76Zm20.39-.21a3.3,3.3,0,0,0,2.28-.78,2.71,2.71,0,0,0,.92-2.05h4.76a6.42,6.42,0,0,1-1.06,3.54,6.92,6.92,0,0,1-2.83,2.49,8.82,8.82,0,0,1-4,.89,8.25,8.25,0,0,1-6.43-2.59,10.27,10.27,0,0,1-2.35-7.16v-.34a10.11,10.11,0,0,1,2.33-7,8.16,8.16,0,0,1,6.42-2.62,8,8,0,0,1,5.72,2,7.17,7.17,0,0,1,2.19,5.41h-4.76a3.53,3.53,0,0,0-.92-2.42,3,3,0,0,0-2.32-.92,3.06,3.06,0,0,0-2.68,1.29,7.53,7.53,0,0,0-.9,4.2V190a7.55,7.55,0,0,0,.89,4.22A3.1,3.1,0,0,0,110.85,195.55Zm16.94-20v4.67H131V184h-3.25v9.49a2.25,2.25,0,0,0,.41,1.51,2,2,0,0,0,1.54.46,8.36,8.36,0,0,0,1.5-.12v3.85a10.63,10.63,0,0,1-3.08.45q-5.34,0-5.45-5.39V184h-2.78v-3.73h2.78V175.6Z"/>
        </g>
    </g>
</svg>